<?xml version="1.0" standalone="no"?>
<!DOCTYPE svg PUBLIC "-//W3C//DTD SVG 20010904//EN"
 "http://www.w3.org/TR/2001/REC-SVG-20010904/DTD/svg10.dtd">
<svg version="1.0" xmlns="http://www.w3.org/2000/svg"
 width="700.000000pt" height="700.000000pt" viewBox="0 0 700.000000 700.000000"
 preserveAspectRatio="xMidYMid meet">
<metadata>
Created by potrace 1.14, written by Peter Selinger 2001-2017
</metadata>
<g transform="translate(0.000000,700.000000) scale(0.100000,-0.100000)"
fill="#000000" stroke="none">
<path d="M2895 6574 c-330 -74 -609 -136 -620 -138 -36 -7 -889 -197 -950
-211 -33 -8 -102 -23 -154 -35 -52 -11 -114 -29 -137 -41 -53 -25 -109 -86
-137 -148 l-21 -46 0 -1535 c0 -844 3 -1569 7 -1610 47 -485 305 -944 692
-1230 33 -25 480 -324 993 -666 l933 -622 951 634 c524 349 982 659 1019 689
248 200 441 471 547 765 42 118 58 179 87 329 16 84 19 343 19 1716 l0 1530
-21 46 c-28 61 -84 123 -136 148 -34 17 -182 55 -292 77 -11 2 -173 38 -360
80 -187 41 -349 77 -360 80 -11 2 -344 76 -740 164 -395 88 -719 160 -720 159
0 0 -270 -61 -600 -135z m679 -480 c39 -9 80 -17 91 -19 11 -3 130 -29 265
-60 135 -30 259 -58 275 -61 17 -3 66 -14 110 -24 71 -17 327 -74 380 -84 11
-3 173 -39 360 -80 187 -42 349 -78 360 -80 119 -24 125 -27 125 -54 4 -364
-1 -2742 -5 -2777 -35 -294 -176 -564 -394 -755 -34 -30 -417 -291 -851 -581
l-789 -526 -803 535 c-729 487 -811 544 -894 626 -184 183 -303 423 -334 674
-9 70 -15 1745 -10 2738 l0 91 53 12 c28 6 61 13 72 15 11 3 211 47 445 100
234 52 436 97 450 100 44 9 71 15 88 20 9 3 28 7 42 10 14 2 129 28 255 56
127 28 241 54 255 56 14 3 54 12 90 20 36 9 77 18 92 20 15 3 58 13 95 22 91
23 96 23 177 6z"/>
<path d="M3410 4953 c-14 -2 -54 -13 -89 -25 -416 -135 -540 -661 -229 -968
24 -23 60 -53 81 -66 l37 -24 0 -623 0 -622 290 0 290 0 0 621 0 621 38 25
c154 104 252 286 254 474 3 272 -176 505 -442 575 -45 12 -182 19 -230 12z"/>
</g>
</svg>
